<svg width="72" height="72" fill="none" xmlns="http://www.w3.org/2000/svg"><circle cx="36" cy="36" r="36" fill="url(#a)"/><path fill-rule="evenodd" clip-rule="evenodd" d="M55.4141 35.4141h-9.4343v-1.3332h2.5454c.3236 0 .586-.2623.586-.5859s-.2624-.5859-.586-.5859h-2.5454v-1.3332h1.7672c.6584 0 1.2774-.2564 1.7428-.7219l3.8536-3.8536c.2511.1251.5295.1916.8182.1916.4911 0 .9528-.1912 1.3-.5384.3473-.3473.5386-.8089.5386-1.3 0-.4911-.1913-.9527-.5386-1.3-.3471-.3473-.8089-.5385-1.3-.5385-.4911 0-.9527.1912-1.3.5384-.3472.3473-.5385.8089-.5385 1.3 0 .2888.0666.5671.1917.8182l-3.8536 3.8536c-.2442.2442-.5689.3787-.9142.3787h-1.7672v-1.2928c0-1.7044-1.3867-3.091-3.091-3.091H41.596v-5.1871c.7272-.2452 1.2525-.9333 1.2525-1.7422 0-1.0137-.8247-1.8384-1.8384-1.8384s-1.8385.8248-1.8385 1.8384c0 .8089.5254 1.4969 1.2525 1.7422v5.1871H39.091v-2.5454c0-.3236-.2623-.586-.5859-.586s-.586.2624-.586.586v2.5454h-1.3332v-9.4343c0-.3236-.2623-.5859-.5859-.5859s-.5859.2623-.5859.5859v9.4343h-1.3332v-2.5454c0-.3236-.2623-.586-.5859-.586s-.5859.2624-.5859.586v2.5454h-1.3332V24.253c0-.6583-.2564-1.2773-.7219-1.7428l-3.8549-3.8549c.3405-.6876.2264-1.5449-.3454-2.1168-.7169-.7168-1.8832-.7167-2.6 0-.7168.7168-.7168 1.8831 0 2.6.3584.3584.8292.5376 1.3.5376.2803 0 .5601-.0651.8168-.1922l3.8549 3.855c.2442.2441.3787.5688.3787.9141v1.7672h-1.2929c-.2613 0-.5212.0328-.7725.0974-.3133.0806-.502.4001-.4214.7135.0807.3134.4002.5021.7136.4214.1558-.0401.3174-.0605.4803-.0605h13.7776c1.0582 0 1.9191.861 1.9191 1.9191v13.7777c0 .1628-.0203.3242-.0603.4799-.0806.3135.1082.6329.4215.7134.0489.0126.098.0186.1464.0186.261 0 .499-.1757.567-.4402.0645-.251.0973-.5107.0973-.7717v-1.2929h5.187c.2452.7272.9333 1.2525 1.7422 1.2525 1.0137 0 1.8384-.8246 1.8384-1.8384 0-1.0137-.8247-1.8384-1.8384-1.8384-.8089 0-1.4969.5253-1.7422 1.2525h-5.187v-1.3332h2.5454c.3236 0 .5859-.2624.5859-.586 0-.3236-.2623-.5859-.5859-.5859h-2.5454v-1.3331h9.4343c.3236 0 .5859-.2623.5859-.5859s-.2623-.5859-.5859-.5859Zm-1.7239-10.5318c.126-.126.2933-.1953.4714-.1953.178 0 .3454.0693.4713.1953.1259.1259.1952.2932.1952.4713 0 .178-.0693.3454-.1952.4713-.1259.126-.2933.1953-.4713.1953-.1781 0-.3454-.0693-.4714-.1953-.1259-.1259-.1952-.2933-.1952-.4713 0-.1781.0693-.3455.1952-.4713Zm-28.808-6.5725c.26.26.6829.2599.9427.0001.2599-.2599.2599-.6828 0-.9427-.1299-.1299-.3006-.1949-.4713-.1949-.1708 0-.3414.0649-.4714.1949-.2599.2598-.2599.6827 0 .9426Zm16.1279 1.4477c-.3675 0-.6666-.2991-.6666-.6666s.299-.6665.6666-.6665.6665.299.6665.6665-.299.6666-.6665.6666Zm12.5655 21.2526c0-.3675-.299-.6666-.6665-.6666-.3676 0-.6667.299-.6666.6666 0 .3675.2991.6665.6666.6665s.6665-.2989.6665-.6665Zm-5.6292 11.8515c-.5718-.5719-1.4292-.6861-2.1168-.3455l-3.8549-3.855c-.2442-.2441-.3787-.5688-.3787-.9141v-1.7672h1.2928c.2614 0 .5212-.0328.7724-.0974.3133-.0806.502-.4001.4214-.7135s-.3999-.502-.7135-.4214c-.1558.0401-.3174.0604-.4803.0604H29.1112c-1.0582 0-1.9191-.8609-1.9191-1.9191V29.1112c0-.1629.0203-.3245.0604-.4802.0807-.3133-.108-.6328-.4213-.7135-.3135-.0807-.6329.108-.7135.4213-.0647.2511-.0975.511-.0975.7724v1.2928h-5.1871c-.2452-.7272-.9333-1.2525-1.7422-1.2525-1.0137 0-1.8384.8247-1.8384 1.8384 0 1.0138.8248 1.8385 1.8384 1.8385.8089 0 1.4969-.5254 1.7422-1.2525h5.1871v1.3332h-2.5454c-.3236 0-.586.2623-.586.5859s.2624.5859.586.5859h2.5454v1.3332h-9.4343c-.3236 0-.5859.2623-.5859.5859s.2623.5859.5859.5859h9.4343v1.3332h-2.5454c-.3236 0-.586.2623-.586.5859s.2624.5859.586.5859h2.5454v1.3332H24.253c-.6584 0-1.2774.2564-1.7428.7219l-3.8536 3.8536c-.2511-.1251-.5295-.1916-.8182-.1916-.4911 0-.9528.1912-1.3.5384-.3471.3473-.5384.809-.5384 1.3s.1912.9527.5385 1.3c.3472.3473.8089.5384 1.3.5384.4911 0 .9527-.1912 1.3-.5384.3473-.3473.5385-.8089.5385-1.3 0-.2887-.0665-.5671-.1916-.8182l3.8536-3.8536c.2441-.2441.5688-.3787.9142-.3787h1.7672v1.2929c0 1.7043 1.3866 3.0909 3.0909 3.0909h1.2928v5.187c-.7271.2453-1.2525.9333-1.2525 1.7422 0 1.0138.8248 1.8384 1.8385 1.8384 1.0136 0 1.8384-.8247 1.8384-1.8384 0-.8089-.5253-1.4969-1.2525-1.7422v-5.187h1.3331v2.5454c0 .3236.2624.5859.586.5859.3236 0 .5859-.2623.5859-.5859v-2.5454h1.3331v9.4344c0 .3236.2623.5859.5859.5859s.5859-.2623.5859-.5859v-9.4343h1.3332v2.5454c0 .3236.2623.586.5859.586s.5859-.2624.5859-.586v-2.5454h1.3332v1.7672c0 .6583.2564 1.2773.7219 1.7428l3.8549 3.8549c-.3405.6876-.2264 1.5449.3455 2.1168.3584.3584.8292.5376 1.3.5376s.9416-.1792 1.3-.5376c.7168-.7168.7168-1.8831 0-2.5999ZM19.0909 31.6565c-.3675 0-.6665-.2991-.6665-.6666 0-.3676.299-.6665.6665-.6665s.6666.299.6666.6665c.0001.3676-.299.6666-.6666.6666ZM17.8384 47.313c.1781 0 .3454-.0693.4714-.1953.1259-.1258.1952-.2932.1952-.4713 0-.178-.0693-.3454-.1952-.4713-.126-.126-.2933-.1953-.4714-.1953-.178 0-.3454.0693-.4713.1953-.1259.1259-.1952.2933-.1952.4713 0 .1781.0693.3454.1952.4713.1259.126.2933.1953.4713.1953Zm13.8181 5.5961c0 .3675-.299.6665-.6666.6665s-.6665-.299-.6665-.6665.299-.6666.6665-.6666.6666.2991.6666.6666Zm14.5186 1.7238c.2599.2598.6828.2599.9427 0s.2599-.6828 0-.9427c-.1299-.1299-.3006-.1949-.4713-.1949-.1707 0-.3414.065-.4714.1949-.2599.2599-.2599.6828 0 .9427Zm-3.9528-20.1984c0-1.2532-.9166-2.3147-2.1714-2.6596.0371-.1532.0578-.3108.0578-.4718 0-1.1864-1.0531-2.1516-2.3473-2.1516-.7011 0-1.3309.2835-1.7613.7316-.4305-.4481-1.0603-.7316-1.7613-.7316-1.2943 0-2.3473.9652-2.3473 2.1516 0 .161.0206.3186.0577.4718-1.2547.3449-2.1713 1.4063-2.1713 2.6596 0 .6124.2167 1.1902.6171 1.6674-.3915.5068-.6171 1.122-.6171 1.777-.0002.9963.5322 1.9265 1.409 2.5035v.0014c0 1.3591 1.211 2.4648 2.6996 2.4648.8555 0 1.6187-.3656 2.1136-.9341.4949.5685 1.2581.9341 2.1136.9341 1.4325 0 2.6075-1.0242 2.6939-2.3127.8701-.5048 1.4147-1.3891 1.4147-2.3439 0-.7024-.2995-1.3724-.8149-1.8788.5153-.5064.8149-1.1765.8149-1.8787Zm-2.0738 2.3968c.5646.298.9017.8067.9017 1.3607 0 .413-.192.807-.5162 1.1016-.3081-.5704-.8525-1.0245-1.5404-1.2406-.3086-.0969-.6376.0747-.7346.3834-.097.3088.0747.6377.3833.7346.5974.1877.9988.6752.9988 1.2129 0 .7129-.6853 1.2929-1.5277 1.2929s-1.5277-.58-1.5277-1.2929v-3.7576c0-.7129.6853-1.2928 1.5277-1.2928.3236 0 .5859-.2623.5859-.5859s-.2623-.586-.5859-.586c-.5668 0-1.093.1607-1.5277.4342v-.7485c0-.3235-.2623-.5859-.5859-.5859s-.586.2624-.586.5859v3.2529c-.1972-.1237-.4134-.2261-.6473-.2997-.3089-.097-.6377.0747-.7346.3833-.0971.3088.0746.6377.3833.7347.5973.1878.9986.6752.9986 1.2128v1.2525c0 .7129-.6853 1.2929-1.5276 1.2929-.8424 0-1.5278-.58-1.5278-1.2929 0-.3055.1296-.6026.3647-.8363.2296-.2281.2307-.5991.0025-.8287-.2281-.2295-.599-.2306-.8286-.0025-.1404.1396-.2612.2921-.3617.4542-.37-.35-.586-.8104-.586-1.2918 0-.8681.6813-1.6307 1.6569-1.8546.3154-.0723.5124-.3867.44-.7021-.0723-.3154-.3867-.5124-.7021-.44-.3927.09-.7543.2404-1.0749.4378-.2079-.261-.3198-.5668-.3198-.8855.0002-.8813.8357-1.5988 1.8656-1.6056l.0069.0004c.0029.0002.0058.0004.0087.0004.1338 0 .2682-.0455.3783-.1387.2246-.1902.2697-.5128.1189-.7556l-.0047-.0078c-.0028-.0046-.0055-.0092-.0085-.0137l-.0042-.0055-.0036-.0048c-.0091-.0128-.0184-.0253-.0284-.0373l-.0009-.0011c-.0977-.1155-.2144-.3068-.2144-.562 0-.5402.5274-.9797 1.1754-.9797.6481 0 1.1754.4395 1.1754.9797 0 .3236.2624.586.5859.586.3236 0 .586-.2624.586-.586 0-.5402.5273-.9797 1.1754-.9797.648 0 1.1754.4395 1.1754.9797 0 .1444-.0378.2675-.0879.3688-.3333.0315-.6557.112-.9617.2411-.2982.1257-.4379.4694-.3122.7676.1257.2981.4693.438.7675.3122.2533-.1068.5258-.1617.81-.1639l.0071.0004c.0032.0001.0065.0003.0097.0003.003 0 .0059-.0002.0088-.0004l.0069-.0004c1.0299.0067 1.8654.7243 1.8654 1.6056 0 .554-.3371 1.0626-.9017 1.3606-.1922.1014-.3125.3009-.3125.5182 0 .2174.1203.4168.3125.5182Z" fill="#fff"/><defs><linearGradient id="a" x1="-35.8489" y1="35.8489" x2="35.8489" y2="107.547" gradientUnits="userSpaceOnUse"><stop stop-color="#33D35E"/><stop offset="1" stop-color="#2AB6D9"/></linearGradient></defs></svg>